<svg xmlns="http://www.w3.org/2000/svg" preserveAspectRatio="xMidYMid" width="1400" height="1001" viewBox="0 0 1400 1001">
  <defs>
    <style>
      .cls-1 {
        fill: #000;
        opacity: 0.05;
        fill-rule: evenodd;
      }
    </style>
  </defs>
  <path d="M-0.000,1.663 C35.866,1.486 184.003,-3.316 203.073,4.161 C379.216,169.313 555.411,334.514 731.553,499.666 C487.727,354.221 243.827,208.733 -0.000,63.289 C-0.000,42.749 -0.000,22.203 -0.000,1.663 ZM400.030,1.663 C460.375,1.663 520.738,1.663 581.083,1.663 C617.780,121.849 654.487,242.071 691.183,362.257 C700.969,394.177 710.758,426.107 720.543,458.027 C724.001,468.043 736.139,488.122 731.553,498.000 C731.553,497.445 731.553,496.890 731.553,496.335 C621.057,331.461 510.527,166.537 400.030,1.663 ZM726.660,1.663 C783.743,1.663 840.844,1.663 897.927,1.663 C843.698,167.092 789.452,332.571 735.223,498.000 C732.736,507.734 743.083,527.060 747.457,538.807 C758.873,573.502 770.293,608.209 781.710,642.904 C820.853,762.258 860.007,881.647 899.150,1001.000 C842.882,1001.000 786.598,1001.000 730.330,1001.000 C731.553,835.016 732.777,668.981 734.000,502.997 C698.060,502.142 643.593,507.180 604.327,512.158 C560.699,515.488 517.058,518.820 473.430,522.151 C315.636,534.086 157.794,546.025 -0.000,557.961 C-0.000,520.489 -0.000,483.007 -0.000,445.535 C183.074,459.691 366.203,473.851 549.277,488.007 C610.845,492.171 672.432,496.335 734.000,500.499 C731.554,334.237 729.106,167.925 726.660,1.663 ZM1058.183,1.663 C1131.168,1.941 1204.175,2.218 1277.160,2.496 C1275.937,3.328 1274.713,4.161 1273.490,4.994 C1094.901,169.313 916.259,333.681 737.670,498.000 C844.497,332.571 951.356,167.092 1058.183,1.663 ZM1466.777,42.469 C1467.184,100.203 1467.592,157.954 1468.000,215.688 C1224.989,310.338 981.905,405.016 738.893,499.666 C981.497,347.282 1224.173,194.853 1466.777,42.469 ZM-0.000,209.025 C243.419,305.896 486.911,402.795 730.330,499.666 C730.330,499.944 730.330,500.221 730.330,500.499 C486.911,448.316 243.419,396.118 -0.000,343.936 C-0.000,298.970 -0.000,253.991 -0.000,209.025 ZM1468.000,453.030 C1224.989,468.851 981.905,484.677 738.893,500.499 C981.905,445.541 1224.989,390.566 1468.000,335.608 C1468.000,374.745 1468.000,413.893 1468.000,453.030 ZM736.447,498.000 C736.854,498.556 737.262,499.111 737.670,499.666 C737.262,499.111 736.854,498.556 736.447,498.000 ZM1468.000,550.466 C1468.000,589.325 1468.000,628.196 1468.000,667.055 C1467.592,667.055 1467.184,667.055 1466.777,667.055 C1224.173,612.097 981.497,557.122 738.893,502.164 C981.905,518.263 1224.989,534.367 1468.000,550.466 ZM726.660,502.997 C727.883,502.997 729.107,502.997 730.330,502.997 C730.330,503.275 730.330,503.552 730.330,503.830 C486.911,601.811 243.419,699.821 -0.000,797.802 C-0.000,752.836 -0.000,707.857 -0.000,662.891 C242.196,609.598 484.464,556.290 726.660,502.997 ZM-0.000,1001.000 C-0.000,982.126 -0.000,963.245 -0.000,944.371 C243.827,797.539 487.727,650.662 731.553,503.830 C556.634,669.537 381.663,835.293 206.743,1001.000 C137.836,1001.000 68.908,1001.000 -0.000,1001.000 ZM736.447,503.830 C736.854,504.385 737.262,504.940 737.670,505.495 C737.262,504.940 736.854,504.385 736.447,503.830 ZM738.893,503.830 C981.905,595.982 1224.989,688.161 1468.000,780.313 C1467.592,836.659 1467.184,893.022 1466.777,949.368 C1463.107,946.870 1459.436,944.371 1455.767,941.873 C1216.833,795.873 977.827,649.830 738.893,503.830 ZM731.553,505.495 C736.502,514.906 723.934,535.796 720.543,545.469 C710.350,578.499 700.153,611.539 689.960,644.570 C653.671,763.368 617.372,882.202 581.083,1001.000 C520.738,1001.000 460.375,1001.000 400.030,1001.000 C400.030,1000.723 400.030,1000.445 400.030,1000.167 C510.527,835.293 621.057,670.370 731.553,505.495 ZM737.670,505.495 C917.482,670.647 1097.348,835.848 1277.160,1001.000 C1203.767,1000.723 1130.353,1000.445 1056.960,1000.167 C950.541,835.293 844.089,670.370 737.670,505.495 Z" class="cls-1"/>
</svg>
